<mxfile host="Electron" agent="Mozilla/5.0 (Macintosh; Intel Mac OS X 10_15_7) AppleWebKit/537.36 (KHTML, like Gecko) draw.io/24.7.8 Chrome/128.0.6613.36 Electron/32.0.1 Safari/537.36" version="24.7.8">
  <diagram name="Page-1" id="NcLdYSK9F5F5aiknCc2m">
    <mxGraphModel dx="1194" dy="739" grid="1" gridSize="10" guides="1" tooltips="1" connect="1" arrows="1" fold="1" page="1" pageScale="1" pageWidth="827" pageHeight="1169" math="0" shadow="0">
      <root>
        <mxCell id="0" />
        <mxCell id="1" parent="0" />
        <mxCell id="2vCPaK8wBtJhJOKpyVR7-1" value="" style="image;aspect=fixed;perimeter=ellipsePerimeter;html=1;align=center;shadow=0;dashed=0;spacingTop=3;image=img/lib/active_directory/internet_globe.svg;" vertex="1" parent="1">
          <mxGeometry x="62" y="108" width="73" height="73" as="geometry" />
        </mxCell>
        <mxCell id="2vCPaK8wBtJhJOKpyVR7-2" value="DNS" style="text;html=1;align=center;verticalAlign=middle;whiteSpace=wrap;rounded=0;" vertex="1" parent="1">
          <mxGeometry x="70" y="76" width="60" height="30" as="geometry" />
        </mxCell>
        <mxCell id="2vCPaK8wBtJhJOKpyVR7-11" style="edgeStyle=orthogonalEdgeStyle;rounded=0;orthogonalLoop=1;jettySize=auto;html=1;" edge="1" parent="1" source="2vCPaK8wBtJhJOKpyVR7-3">
          <mxGeometry relative="1" as="geometry">
            <mxPoint x="140" y="145" as="targetPoint" />
          </mxGeometry>
        </mxCell>
        <mxCell id="2vCPaK8wBtJhJOKpyVR7-13" style="edgeStyle=orthogonalEdgeStyle;rounded=0;orthogonalLoop=1;jettySize=auto;html=1;" edge="1" parent="1" source="2vCPaK8wBtJhJOKpyVR7-3">
          <mxGeometry relative="1" as="geometry">
            <mxPoint x="440" y="300" as="targetPoint" />
          </mxGeometry>
        </mxCell>
        <mxCell id="2vCPaK8wBtJhJOKpyVR7-3" value="" style="rounded=1;whiteSpace=wrap;html=1;" vertex="1" parent="1">
          <mxGeometry x="280" y="80" width="320" height="130" as="geometry" />
        </mxCell>
        <mxCell id="2vCPaK8wBtJhJOKpyVR7-6" value="" style="fontColor=#0066CC;verticalAlign=top;verticalLabelPosition=bottom;labelPosition=center;align=center;html=1;outlineConnect=0;fillColor=#CCCCCC;strokeColor=#6881B3;gradientColor=none;gradientDirection=north;strokeWidth=2;shape=mxgraph.networks.mobile;" vertex="1" parent="1">
          <mxGeometry x="340" y="94" width="50" height="76" as="geometry" />
        </mxCell>
        <mxCell id="2vCPaK8wBtJhJOKpyVR7-7" value="" style="fontColor=#0066CC;verticalAlign=top;verticalLabelPosition=bottom;labelPosition=center;align=center;html=1;outlineConnect=0;fillColor=#CCCCCC;strokeColor=#6881B3;gradientColor=none;gradientDirection=north;strokeWidth=2;shape=mxgraph.networks.laptop;" vertex="1" parent="1">
          <mxGeometry x="440" y="101" width="100" height="55" as="geometry" />
        </mxCell>
        <mxCell id="2vCPaK8wBtJhJOKpyVR7-8" value="Mobile app" style="text;html=1;align=center;verticalAlign=middle;whiteSpace=wrap;rounded=0;" vertex="1" parent="1">
          <mxGeometry x="335" y="170" width="65" height="30" as="geometry" />
        </mxCell>
        <mxCell id="2vCPaK8wBtJhJOKpyVR7-9" value="Web browser" style="text;html=1;align=center;verticalAlign=middle;whiteSpace=wrap;rounded=0;" vertex="1" parent="1">
          <mxGeometry x="440" y="160" width="100" height="30" as="geometry" />
        </mxCell>
        <mxCell id="2vCPaK8wBtJhJOKpyVR7-10" value="User" style="text;html=1;align=center;verticalAlign=middle;whiteSpace=wrap;rounded=0;" vertex="1" parent="1">
          <mxGeometry x="280" y="87" width="60" height="30" as="geometry" />
        </mxCell>
        <mxCell id="2vCPaK8wBtJhJOKpyVR7-17" style="edgeStyle=orthogonalEdgeStyle;rounded=0;orthogonalLoop=1;jettySize=auto;html=1;" edge="1" parent="1" source="2vCPaK8wBtJhJOKpyVR7-12">
          <mxGeometry relative="1" as="geometry">
            <mxPoint x="440.0050000000001" y="490" as="targetPoint" />
          </mxGeometry>
        </mxCell>
        <mxCell id="2vCPaK8wBtJhJOKpyVR7-12" value="" style="verticalLabelPosition=bottom;html=1;verticalAlign=top;align=center;strokeColor=none;fillColor=#00BEF2;shape=mxgraph.azure.load_balancer_generic;pointerEvents=1;" vertex="1" parent="1">
          <mxGeometry x="405.63" y="311" width="68.75" height="79" as="geometry" />
        </mxCell>
        <mxCell id="2vCPaK8wBtJhJOKpyVR7-14" value="&lt;font style=&quot;font-size: 14px;&quot;&gt;v1/me/feed?content=Hello&lt;br&gt;&amp;amp;auth_token={auth_token}&lt;/font&gt;" style="text;html=1;align=center;verticalAlign=middle;whiteSpace=wrap;rounded=0;" vertex="1" parent="1">
          <mxGeometry x="450" y="220" width="190" height="60" as="geometry" />
        </mxCell>
        <mxCell id="2vCPaK8wBtJhJOKpyVR7-23" style="edgeStyle=orthogonalEdgeStyle;rounded=0;orthogonalLoop=1;jettySize=auto;html=1;entryX=0.5;entryY=0;entryDx=0;entryDy=0;" edge="1" parent="1" source="2vCPaK8wBtJhJOKpyVR7-16" target="2vCPaK8wBtJhJOKpyVR7-20">
          <mxGeometry relative="1" as="geometry" />
        </mxCell>
        <mxCell id="2vCPaK8wBtJhJOKpyVR7-24" style="edgeStyle=orthogonalEdgeStyle;rounded=0;orthogonalLoop=1;jettySize=auto;html=1;entryX=0.5;entryY=0;entryDx=0;entryDy=0;exitX=0.88;exitY=0.5;exitDx=0;exitDy=0;exitPerimeter=0;" edge="1" parent="1" source="2vCPaK8wBtJhJOKpyVR7-16" target="2vCPaK8wBtJhJOKpyVR7-22">
          <mxGeometry relative="1" as="geometry" />
        </mxCell>
        <mxCell id="2vCPaK8wBtJhJOKpyVR7-31" style="edgeStyle=orthogonalEdgeStyle;rounded=0;orthogonalLoop=1;jettySize=auto;html=1;entryX=0.5;entryY=0;entryDx=0;entryDy=0;" edge="1" parent="1" source="2vCPaK8wBtJhJOKpyVR7-16" target="2vCPaK8wBtJhJOKpyVR7-21">
          <mxGeometry relative="1" as="geometry">
            <mxPoint x="444" y="710" as="targetPoint" />
          </mxGeometry>
        </mxCell>
        <mxCell id="2vCPaK8wBtJhJOKpyVR7-16" value="" style="fontColor=#0066CC;verticalAlign=top;verticalLabelPosition=bottom;labelPosition=center;align=center;html=1;outlineConnect=0;fillColor=#CCCCCC;strokeColor=#6881B3;gradientColor=none;gradientDirection=north;strokeWidth=2;shape=mxgraph.networks.web_server;" vertex="1" parent="1">
          <mxGeometry x="388" y="500" width="112" height="105" as="geometry" />
        </mxCell>
        <mxCell id="2vCPaK8wBtJhJOKpyVR7-18" value="&lt;font style=&quot;font-size: 14px;&quot;&gt;Load Balancer&lt;/font&gt;" style="text;html=1;align=center;verticalAlign=middle;whiteSpace=wrap;rounded=0;" vertex="1" parent="1">
          <mxGeometry x="493" y="335.5" width="127" height="30" as="geometry" />
        </mxCell>
        <mxCell id="2vCPaK8wBtJhJOKpyVR7-19" value="&lt;font style=&quot;font-size: 14px;&quot;&gt;Web Servers&lt;/font&gt;" style="text;html=1;align=center;verticalAlign=middle;whiteSpace=wrap;rounded=0;" vertex="1" parent="1">
          <mxGeometry x="474.38" y="500" width="127" height="30" as="geometry" />
        </mxCell>
        <mxCell id="2vCPaK8wBtJhJOKpyVR7-27" style="edgeStyle=orthogonalEdgeStyle;rounded=0;orthogonalLoop=1;jettySize=auto;html=1;" edge="1" parent="1" source="2vCPaK8wBtJhJOKpyVR7-20" target="2vCPaK8wBtJhJOKpyVR7-26">
          <mxGeometry relative="1" as="geometry" />
        </mxCell>
        <mxCell id="2vCPaK8wBtJhJOKpyVR7-20" value="&lt;font style=&quot;font-size: 14px;&quot;&gt;Post service&lt;/font&gt;" style="rounded=1;whiteSpace=wrap;html=1;" vertex="1" parent="1">
          <mxGeometry x="170" y="720" width="120" height="60" as="geometry" />
        </mxCell>
        <mxCell id="2vCPaK8wBtJhJOKpyVR7-34" style="edgeStyle=orthogonalEdgeStyle;rounded=0;orthogonalLoop=1;jettySize=auto;html=1;" edge="1" parent="1" source="2vCPaK8wBtJhJOKpyVR7-21" target="2vCPaK8wBtJhJOKpyVR7-29">
          <mxGeometry relative="1" as="geometry" />
        </mxCell>
        <mxCell id="2vCPaK8wBtJhJOKpyVR7-21" value="&lt;font style=&quot;font-size: 14px;&quot;&gt;Fanout service&lt;/font&gt;" style="rounded=1;whiteSpace=wrap;html=1;" vertex="1" parent="1">
          <mxGeometry x="384" y="720" width="120" height="60" as="geometry" />
        </mxCell>
        <mxCell id="2vCPaK8wBtJhJOKpyVR7-22" value="&lt;font style=&quot;font-size: 14px;&quot;&gt;Notification&lt;/font&gt;&lt;div&gt;&lt;font style=&quot;font-size: 14px;&quot;&gt;&amp;nbsp;service&lt;/font&gt;&lt;/div&gt;" style="rounded=1;whiteSpace=wrap;html=1;" vertex="1" parent="1">
          <mxGeometry x="590" y="720" width="120" height="60" as="geometry" />
        </mxCell>
        <mxCell id="2vCPaK8wBtJhJOKpyVR7-26" value="" style="sketch=0;outlineConnect=0;fontColor=#232F3E;gradientColor=none;fillColor=#C925D1;strokeColor=none;dashed=0;verticalLabelPosition=bottom;verticalAlign=top;align=center;html=1;fontSize=12;fontStyle=0;aspect=fixed;pointerEvents=1;shape=mxgraph.aws4.cache_node;" vertex="1" parent="1">
          <mxGeometry x="191" y="840" width="78" height="78" as="geometry" />
        </mxCell>
        <mxCell id="2vCPaK8wBtJhJOKpyVR7-28" value="&lt;font style=&quot;font-size: 14px;&quot;&gt;Post&lt;/font&gt;" style="text;html=1;align=center;verticalAlign=middle;whiteSpace=wrap;rounded=0;" vertex="1" parent="1">
          <mxGeometry x="200" y="870" width="60" height="30" as="geometry" />
        </mxCell>
        <mxCell id="2vCPaK8wBtJhJOKpyVR7-29" value="" style="sketch=0;outlineConnect=0;fontColor=#232F3E;gradientColor=none;fillColor=#C925D1;strokeColor=none;dashed=0;verticalLabelPosition=bottom;verticalAlign=top;align=center;html=1;fontSize=12;fontStyle=0;aspect=fixed;pointerEvents=1;shape=mxgraph.aws4.cache_node;" vertex="1" parent="1">
          <mxGeometry x="405" y="840" width="78" height="78" as="geometry" />
        </mxCell>
        <mxCell id="2vCPaK8wBtJhJOKpyVR7-30" value="&lt;font style=&quot;font-size: 14px;&quot;&gt;New Feed&lt;/font&gt;" style="text;html=1;align=center;verticalAlign=middle;whiteSpace=wrap;rounded=0;" vertex="1" parent="1">
          <mxGeometry x="414" y="870" width="60" height="30" as="geometry" />
        </mxCell>
        <mxCell id="2vCPaK8wBtJhJOKpyVR7-35" value="" style="strokeWidth=2;html=1;shape=mxgraph.flowchart.database;whiteSpace=wrap;" vertex="1" parent="1">
          <mxGeometry x="200" y="990" width="60" height="60" as="geometry" />
        </mxCell>
        <mxCell id="2vCPaK8wBtJhJOKpyVR7-36" style="edgeStyle=orthogonalEdgeStyle;rounded=0;orthogonalLoop=1;jettySize=auto;html=1;entryX=0.5;entryY=0;entryDx=0;entryDy=0;entryPerimeter=0;" edge="1" parent="1" source="2vCPaK8wBtJhJOKpyVR7-26" target="2vCPaK8wBtJhJOKpyVR7-35">
          <mxGeometry relative="1" as="geometry" />
        </mxCell>
        <mxCell id="2vCPaK8wBtJhJOKpyVR7-37" value="DB" style="text;html=1;align=center;verticalAlign=middle;whiteSpace=wrap;rounded=0;" vertex="1" parent="1">
          <mxGeometry x="200" y="1010" width="60" height="30" as="geometry" />
        </mxCell>
      </root>
    </mxGraphModel>
  </diagram>
</mxfile>
